<svg width="138" height="31" viewBox="0 0 138 31" fill="none" xmlns="http://www.w3.org/2000/svg">
<path d="M2.66271 26.4222H14.0816C15.2082 26.4222 16.1299 25.5005 16.1299 24.374C16.1299 23.2474 15.2082 22.3257 14.0816 22.3257H4.40371V2.35542C4.40371 1.17769 3.4308 0.153564 2.20186 0.153564C0.972914 0.153564 0 1.17769 0 2.35542V23.7595C0 25.2445 1.17774 26.4222 2.66271 26.4222H2.66271Z" fill="white"/>
<path d="M20.7896 0.153564C19.6119 0.153564 18.6902 1.12648 18.6902 2.30422V24.3228C18.6902 25.5005 19.6119 26.4222 20.7896 26.4222C21.9674 26.4222 22.8891 25.5005 22.8891 24.3228V2.30422C22.8891 1.12648 21.9674 0.153564 20.7896 0.153564Z" fill="white"/>
<path d="M33.079 2.66271V7.47607C30.826 7.37365 28.8289 7.62968 27.4464 8.55139C26.115 9.42189 25.4493 10.7532 25.4493 12.443C25.4493 14.7985 26.6271 16.5395 28.7777 17.4612C29.853 17.8709 31.1332 18.0757 32.567 18.0757C36.561 18.0757 41.528 16.5395 45.266 14.6961C43.6274 14.1328 41.3744 13.3647 39.6334 13.0063C36.049 14.184 32.1573 14.8497 30.2115 13.9792C29.4434 13.672 29.1874 13.2623 29.1874 12.443C29.1874 11.931 29.341 11.7774 29.5458 11.6237C30.0579 11.2653 30.9284 11.1117 32.0549 11.1117C34.2568 11.1117 37.4315 11.7774 40.6575 12.6479C40.6575 12.6479 45.0612 13.8768 47.2631 14.7985C47.5191 14.9009 47.7239 15.0033 47.9799 15.1058C48.3896 15.3618 48.748 15.669 49.0041 15.9763C49.5161 16.5907 49.7722 17.41 49.7722 18.4853C49.7722 21.1993 47.9799 22.4282 44.6516 22.4282H37.5339V18.1269C35.9978 18.4853 34.5128 18.6902 33.079 18.7414V23.7596C33.079 25.2445 34.308 26.4223 35.7417 26.4223H44.9076C51.0523 26.4223 54.2271 23.6571 54.2271 18.9974C54.2271 15.413 52.4861 13.1087 49.9258 12.1358C49.9258 12.1358 52.0252 10.5484 52.0252 6.75918C52.0252 3.37959 49.9258 0 44.2419 0H35.7417C34.308 0 33.079 1.17773 33.079 2.66271H33.079ZM37.5339 3.99406H43.7811C46.8022 3.99406 47.9287 5.32542 47.9287 7.42486C47.9287 8.6026 47.2119 9.57551 45.4709 10.2412C43.1666 9.42189 40.3503 8.60259 37.5339 8.03933V3.99406Z" fill="white"/>
<path d="M56.7874 2.30422V24.3228C56.7874 25.5005 57.7091 26.4222 58.8868 26.4222C60.0645 26.4222 60.9862 25.5005 60.9862 24.3228V18.7413C61.4983 18.8437 62.0104 18.8949 62.5736 18.8949C62.676 18.8949 66.4141 18.8437 66.6189 18.8437C66.5677 18.6389 66.5165 18.4853 66.4653 18.2805C66.1068 16.7443 65.7996 15.5665 65.3388 14.7473C65.3388 14.7473 62.676 14.696 62.5736 14.696C61.3447 14.696 60.679 14.184 60.4742 13.8255C60.3718 13.6207 60.3718 13.5183 60.423 13.4159C60.5766 13.1599 61.3447 12.699 63.0857 12.8014C65.8508 12.955 66.4141 14.44 67.3358 18.2805C67.387 18.4853 67.4894 18.8437 67.4894 18.8437C68.5647 23.145 72.5076 30.7747 86.7428 30.7747C87.1525 30.7747 87.6133 30.7747 88.023 30.7747C91.4026 30.6723 94.4237 29.9554 96.9328 28.6753C98.0081 28.1632 98.4178 26.8831 97.9057 25.8589C97.3937 24.8348 96.1135 24.4252 95.0894 24.9372C93.0412 25.9101 90.6345 26.4734 87.9206 26.5758C78.6523 26.8318 72.866 23.6571 71.5347 17.5636C74.2486 16.0274 75.836 13.2623 75.836 9.52425C75.836 3.68677 72.1491 0.153564 66.158 0.153564H58.8868C57.7091 0.153564 56.7874 1.12647 56.7874 2.30421V2.30422ZM60.9862 4.30124H65.9532C69.64 4.30124 71.5859 6.19587 71.5859 9.52425C71.5859 11.1116 71.0738 12.3918 70.2033 13.2623C69.128 10.9068 67.1822 8.80737 63.2905 8.60255C62.42 8.55134 61.6519 8.60254 60.9862 8.70496L60.9862 4.30124ZM78.6011 15.3105C78.3451 18.3317 80.2909 21.8649 85.053 22.633C85.6163 22.7354 86.1796 22.7866 86.6916 22.7866C88.4838 22.7866 89.9688 22.2233 91.1977 21.404C91.4538 22.1721 92.1194 22.6842 92.9899 22.7866C93.0412 22.7866 93.0924 22.7866 93.1436 22.7866C94.2189 22.7866 95.1406 21.9673 95.243 20.8408C96.3695 7.3736 95.6015 2.61145 88.9447 1.07527C83.2608 -0.204878 79.3692 3.48195 79.2156 3.63557C78.3963 4.45486 78.3451 5.78622 79.1643 6.60551C79.9836 7.42481 81.2638 7.47601 82.1343 6.65672C82.2367 6.60551 84.5922 4.40366 88.023 5.17175C89.6104 5.5814 90.8393 5.83742 91.2489 9.26822C89.764 9.37063 87.4085 9.52425 84.9506 9.52425C81.5198 9.52425 78.8571 11.9821 78.6011 15.3105V15.3105ZM91.4026 13.4671C91.1977 14.4912 90.02 19.2022 85.7187 18.4853C83.4144 18.1268 82.6976 16.7955 82.8 15.669C82.8512 14.7985 83.4656 13.7743 84.9506 13.7743C87.4085 13.7743 89.8152 13.6207 91.4026 13.4671V13.4671Z" fill="white"/>
<path d="M105.023 24.4764C105.433 25.6541 106.56 26.4222 107.84 26.4222C109.069 26.4222 110.195 25.6541 110.656 24.4764L118.798 2.86748C119.31 1.53613 118.337 0.153564 116.954 0.153564C116.135 0.153564 115.418 0.665626 115.111 1.43372L107.942 20.4311L100.876 1.43372C100.568 0.665629 99.8516 0.153564 98.9811 0.153564H98.6738C97.2913 0.153564 96.3184 1.53613 96.7792 2.86748L105.023 24.4764Z" fill="white"/>
<path d="M138 24.374C138 23.2474 137.078 22.3257 135.952 22.3257H125.915V16.2322C125.915 16.181 125.967 16.1298 125.967 16.0786C126.12 15.0545 126.684 13.9792 128.066 12.955C129.193 11.9821 130.678 11.4189 132.419 11.4189C133.545 11.4189 134.16 11.7773 134.364 12.0845C134.416 12.1358 134.467 12.2894 134.313 12.5454C134.108 12.955 133.289 13.4159 131.855 13.4159C130.626 13.4159 129.653 13.3135 128.834 13.1599C127.554 13.7743 126.837 14.9521 126.53 15.925C127.912 16.4883 129.653 16.7443 131.804 16.7443C134.313 16.7443 136.259 15.8738 137.232 14.2352C137.949 13.0063 137.949 11.5725 137.283 10.3947C136.413 8.90977 134.62 8.03927 132.419 8.03927C129.858 8.03927 127.656 8.85857 125.915 10.2923V4.25004H135.952C137.078 4.25004 138 3.32833 138 2.2018C138 1.07527 137.078 0.153564 135.952 0.153564H124.174C122.689 0.153564 121.512 1.3313 121.512 2.81627V7.47601C121.717 9.47304 122.024 12.3406 123.304 13.6207C121.973 14.9521 121.563 16.6931 121.512 18.8437V23.7595C121.512 25.2445 122.689 26.4222 124.174 26.4222H135.952C137.078 26.4222 138 25.5005 138 24.374L138 24.374Z" fill="white"/>
</svg>
